<?xml version="1.0" encoding="utf-8"?>
<!-- Generator: Adobe Illustrator 13.0.0, SVG Export Plug-In . SVG Version: 6.00 Build 14948)  -->
<!DOCTYPE svg PUBLIC "-//W3C//DTD SVG 1.1//EN" "http://www.w3.org/Graphics/SVG/1.1/DTD/svg11.dtd">
<svg version="1.1" xmlns="http://www.w3.org/2000/svg" xmlns:xlink="http://www.w3.org/1999/xlink" x="0px" y="0px"
	 width="4430.376px" height="1973.466px" viewBox="0 0 4430.376 1973.466" enable-background="new 0 0 4430.376 1973.466"
	 xml:space="preserve">
<g id="Layer_1">
</g>
<g id="Layer_6">
	<linearGradient id="SVGID_1_" gradientUnits="userSpaceOnUse" x1="5" y1="1721.7988" x2="1925" y2="1721.7988">
		<stop  offset="0" style="stop-color:#E8EDF2"/>
		<stop  offset="0.1753" style="stop-color:#E3E9EF"/>
		<stop  offset="0.3734" style="stop-color:#D6DDE6"/>
		<stop  offset="0.5" style="stop-color:#C9D2DD"/>
		<stop  offset="0.6435" style="stop-color:#D9E0E8"/>
		<stop  offset="0.8185" style="stop-color:#E4EAEF"/>
		<stop  offset="1" style="stop-color:#E8EDF2"/>
	</linearGradient>
	<rect x="5" y="1571.799" fill="url(#SVGID_1_)" width="1920" height="300"/>
</g>
<g id="Layer_3" display="none">
	<g display="inline">
		<g>
			<path fill="#E8EDF2" d="M2710.725,331.927l-0.231,0.023c-5.824-0.018-11.648-0.043-17.474-0.051
				c-55.798-0.077-108.826-0.111-164.623-0.159c0,0-18.586-0.009-18.547-0.063l0.792,40.5c0,0,128.566,0.281,187.867,0.308
				c-1.713,3.14-3.424,6.281-5.137,9.422c-2.023,2.611-4.108,5.178-6.063,7.84c-50.011,68.105-100.028,136.205-149.991,204.343
				c-9.721,13.26-19.225,26.678-28.829,40.021c-3.69,4.76-7.382,9.52-11.433,14.742h285.714c0-13.432,0.004-26.658-0.054-39.883
				c0-0.145-0.799-0.285-1.225-0.428c-1.154-0.086-2.307-0.244-3.46-0.244c-41.903-0.012-83.808-0.127-125.712,0.039
				c-22.602,0.088-45.202,0.66-67.804,1.016c-1.181-0.178-2.362-0.355-4.079-0.613c67.624-92.459,134.865-184.395,202.818-277.304
				L2710.725,331.927z M3681.224,606.291c-28.047-0.063-56.094-0.07-84.14-0.1c-0.132-0.65-0.38-1.301-0.38-1.949
				c0.01-30.793,0.035-61.586,0.082-92.379c0.002-1.086,0.233-2.172,0.403-3.654h128.64v-39.762
				c-0.916-0.396-1.832-1.143-2.748-1.141c-41.73,0.082-83.463,0.229-125.195,0.369c-0.387-1.135-1.108-2.268-1.11-3.402
				c-0.048-27.434-0.02-54.869-0.005-82.305c0.002-3.45,0-6.901,0-11.063h133.688v-39.985h-8.326
				c-0.649-0.116-1.301-0.337-1.948-0.333c-53.377,0.299-106.754,0.613-160.13,0.928c-2.445-0.045-4.936-0.373-7.313,0.006
				c-0.95,0.15-1.652,1.857-2.467,2.856c0.016,2.427,0.03,4.853,0.044,7.279c-0.035,1.974-0.073,3.946-0.108,5.919
				c-0.014,43.874-0.045,87.748-0.031,131.623c0.004,12.293,0.139,24.588,0.213,36.881c0.276,29.711,0.553,59.42,0.829,89.129
				c0.079,7.66,0.158,15.322,0.237,22.982c0.086,1.406,0.174,2.814,0.26,4.221c-0.175,2.623-0.434,5.244-0.51,7.869
				c-0.194,6.748-0.162,6.748,6.584,6.748h177.111v-40.494h-9.887C3710.419,606.449,3695.822,606.322,3681.224,606.291z
				 M3454.562,331.347c-9.452-0.155-18.904-0.291-28.356-0.433c-1.328-0.022-2.658-0.045-3.988-0.067
				c-2.906,0.001-5.814,0.001-8.965,0.001v15.656c0.153,16.628,0.377,33.256,0.445,49.885c0.108,26.607,0.151,53.214,0.149,79.822
				c-0.002,30.594-0.081,61.186-0.127,91.777c-0.277,2.521-0.554,5.043-0.833,7.563c-0.777-0.566-1.7-1.01-2.309-1.721
				c-5.365-6.256-10.589-12.633-16.013-18.836c-11.538-13.195-23.228-26.258-34.752-39.465
				c-16.404-18.795-32.665-37.715-49.083-56.498c-16.301-18.648-32.767-37.152-49.078-55.791
				c-20.569-23.506-41.055-47.083-61.575-70.631c-1.293-0.739-2.603-2.139-3.875-2.105c-5.988,0.159-11.967,0.712-17.949,1.124
				l-7.729-0.744c-2.42-0.141-4.839-0.279-7.484-0.432c0.196,4.127,0.367,7.709,0.537,11.291c0.053,1.793,0.106,3.584,0.161,5.377
				c-0.177,6.64-0.498,13.281-0.503,19.922c-0.059,87.089-0.074,174.179-0.088,261.269c0,0.986,0.178,1.973,0.271,2.959v13.787
				h42.66V404.793c0.389-0.311,0.777-0.619,1.166-0.928c0.431,0.867,0.702,1.871,1.314,2.582
				c12.605,14.693,25.188,29.404,37.898,44.004c24.793,28.479,49.722,56.838,74.487,85.34c29.455,33.898,58.98,67.74,88.041,101.973
				c5.967,7.029,11.96,10.568,21.355,9.574c8.494-0.898,17.16-0.189,26.05-0.189c0-2.975,0.001-5.289,0-7.605
				c-0.04-101.713-0.081-203.426-0.121-305.138C3457.759,332.237,3456.834,331.384,3454.562,331.347z M3960.789,537.965
				c29.057,35.326,58.108,70.658,87.319,105.857c1.438,1.732,4.335,3.139,6.577,3.178c15.814,0.27,31.635,0.148,47.452,0.123
				c0.854-0.002,1.708-0.275,3.001-0.498c-18.869-22.682-37.408-44.877-55.854-67.152c-25.708-31.045-51.331-62.16-77.05-93.195
				c-1.664-2.008-1.912-3.252-0.044-5.457c11.748-13.869,23.29-27.914,34.911-41.891c23.873-28.711,47.782-57.389,71.604-86.141
				c4.915-5.933,9.513-12.128,14.256-18.202l-0.142,0.036c0.364-0.369,0.729-0.739,1.094-1.108c1.944-2.645,0.284-2.934-1.896-2.921
				c-12.052,0.068-24.103,0.128-36.152,0.19c-1.307-0.029-2.615-0.06-3.923-0.09c-3.38,0.561-7.319-2.254-10.142,1.681
				c-1.379,1.485-2.76,2.972-4.14,4.459c-30.277,36.53-60.555,73.061-90.833,109.592c-1.905,1.273-3.811,2.549-5.717,3.82
				c-0.441-0.857-0.746-1.83-1.346-2.561c-13.856-16.881-27.769-33.715-41.621-50.598c-17.172-20.931-34.271-41.92-51.514-62.791
				c-1.061-1.283-3.104-1.756-4.69-2.604c-12.636-0.033-25.272-0.063-37.907-0.094c-3.965,0.326-7.93,0.653-13.26,1.092
				c2.229,2.627,3.635,4.283,5.04,5.94l0.001-0.001c0.309,0.346,0.617,0.693,0.925,1.04c0.683,0.944,1.366,1.888,2.05,2.833
				c0.524,0.671,1.05,1.341,1.576,2.013c0.784,0.959,1.57,1.918,2.355,2.878c5.683,7.081,11.27,14.241,17.063,21.23
				c18.824,22.704,37.72,45.351,56.599,68.011c12.749,15.303,25.518,30.592,38.277,45.887l-0.852,2.627
				c0.016,0.814-0.117,1.693-0.103,2.51c-0.015-0.816,0.118-1.695,0.101-2.51c-0.685,0.713-1.418,1.387-2.049,2.145
				c-24.464,29.381-48.945,58.746-73.363,88.164c-11.772,14.186-23.42,28.471-35.127,42.713c-0.808,0.994-1.617,1.988-2.428,2.982
				c-2.039,2.934-4.078,5.867-6.117,8.799c-1.246,1.09-2.49,2.178-3.736,3.268c-3.868,4.424-7.736,8.85-12.168,13.92
				c17.854,0,34.635-0.08,51.414,0.076c2.959,0.027,4.875-0.949,6.683-3.135c24.755-29.939,49.555-59.844,74.362-89.74
				c10.539-12.701,21.121-25.369,31.824-38.221C3949.168,523.619,3954.925,530.836,3960.789,537.965z M4427.982,270.357
				c-5.483-37.544-19.566-71.669-42.018-102.376c-19.547-26.735-42.911-49.546-70.232-68.126
				c-20.925-14.23-42.531-27.424-66.034-37.179c-14.816-6.15-29.278-13.31-44.43-18.46c-22.036-7.489-44.407-14.115-66.909-20.074
				c-15.495-4.103-31.395-6.81-47.223-9.498c-19.654-3.338-39.379-6.344-59.154-8.861c-14.487-1.843-29.088-2.917-43.668-3.878
				c-14.699-0.967-29.444-2.068-44.154-1.885c-36.54,0.453-73.074,1.485-109.604,2.551c-10.22,0.298-20.438,1.266-30.609,2.376
				c-15.801,1.723-31.567,3.77-47.334,5.792c-13.203,1.693-26.438,3.226-39.563,5.408c-17.354,2.883-34.658,6.118-51.903,9.598
				c-15.111,3.049-30.111,6.646-45.161,10c-6.595,1.408-13.27,2.52-19.77,4.279c-23.872,6.464-47.698,13.1-71.519,19.752
				c-40.656,11.354-80.381,25.424-119.541,41.127c-31.672,14.254-63.343,28.507-95.014,42.76c-2.003,0.959-4.007,1.919-6.009,2.878
				c-0.975,0.425-1.95,0.85-2.926,1.275c-1.953,0.713-4.043,1.178-5.839,2.176c-27.84,15.479-55.642,31.027-83.452,46.56
				c-0.264-0.104-0.496-0.056-0.701,0.141c-0.976,0.689-1.951,1.378-2.928,2.068c-9.787,6.193-19.623,12.308-29.342,18.607
				c-5.49,3.562-10.786,7.425-16.168,11.152c-0.534,0.35-1.066,0.701-1.6,1.051c-0.352,0.282-0.703,0.564-1.055,0.846
				c-4.088,2.802-8.307,5.433-12.235,8.442c-9.306,7.126-18.474,14.433-27.696,21.666l0.004-0.076
				c-0.667,0.344-1.334,0.688-2.001,1.032c-0.657,0.596-1.315,1.192-1.974,1.789c-0.342,0.428-0.685,0.857-1.026,1.287l0.047-0.07
				c-0.325-0.046-0.633,0.013-0.92,0.176c-5.872,4.856-11.856,9.584-17.598,14.589c-25.3,22.052-51.308,43.321-73.476,68.757
				c-15.158,17.394-31.227,34.011-44.009,53.353c-0.349,0.66-0.696,1.32-1.048,1.979l0.075-0.02l-0.002,0.006
				c-4.647,6.664-9.294,13.328-13.94,19.992l-10.997,14.939c-1.157-1.088-2.48-2.047-3.446-3.283
				c-9.434-12.082-18.771-24.238-28.207-36.318c-17.015-21.785-34.078-43.531-51.123-65.293c-1.756-0.877-3.502-2.49-5.27-2.512
				c-11.488-0.145-22.982,0.056-34.474,0.145h-16.32c3.362,3.649,6.045,6.562,8.728,9.474c0.388,0.344,0.774,0.687,1.162,1.03
				h-0.011c1.033,1.646,2.066,3.291,3.099,4.937c0.987,1.285,1.965,2.578,2.963,3.854c16.361,20.91,32.707,41.834,49.095,62.724
				c13.147,16.76,26.397,33.439,39.499,50.238c4.325,5.545,8.324,11.344,12.472,17.027c-2.132,5.119-4.263,10.236-6.394,15.354
				l-3.73,20.672c1.243-6.891,2.487-13.781,3.729-20.672c-2.313,6.221-4.624,12.441-6.937,18.664
				c-0.299,1.238-0.598,2.479-0.896,3.719c-0.273,0.424-0.545,0.85-0.818,1.273c-0.306,1.145-0.611,2.289-0.918,3.436
				c-0.711,2.854-1.422,5.709-2.132,8.564l-0.135,1.014l-0.207,0.178l0.093,0.256c-2.938,16.096-7.096,32.086-8.491,48.314
				c-1.594,18.541-0.638,37.299,2.722,55.754c3.463,19.018,8.951,37.502,17.355,54.881c10.723,22.172,23.61,42.988,40.479,61.254
				c15.514,16.801,32.082,32.277,50.971,45.211c0.579,0.635,1.158,1.271,1.736,1.906l0.724-0.615
				c-0.58-0.68-1.161-1.361-1.742-2.041c-3.411-4.207-6.88-8.369-10.226-12.631c-33.379-42.516-50.545-91.014-53.234-144.785
				c-0.167-3.34,0.919-6.732,1.313-10.113c1.564-13.473,2.357-27.082,4.781-40.395c4.424-24.299,12.807-47.449,23.357-69.732
				c19.635-41.475,46.412-78.201,77.256-111.869c15.536-16.958,32.198-33.066,49.658-48.039
				c21.913-18.789,44.619-36.772,67.969-53.749c35.051-25.481,72.557-47.188,111.13-66.878
				c22.504-11.487,45.505-22.083,68.695-32.129c35.574-15.412,72.036-28.545,109.07-40.066
				c38.676-12.032,77.79-22.465,117.59-29.944c30.659-5.762,61.469-10.958,92.4-14.943c24.852-3.201,49.956-4.985,75.005-5.973
				c25.023-0.988,50.127-0.652,75.174-0.051c18.628,0.447,37.285,1.656,55.816,3.591c22.066,2.304,44.15,4.98,65.98,8.874
				c33.262,5.933,65.873,14.663,97.658,26.281c25.815,9.436,50.721,20.835,74.433,34.75c28.69,16.836,54.799,36.917,76.901,61.934
				c12.166,13.772,22.878,28.618,31.536,44.827c14.152,26.492,23.687,54.546,25.643,84.653c0.935,14.383,0.644,28.906-0.09,43.312
				c-0.492,9.674-2.734,19.256-4.193,28.881l0.022-0.023c-0.252,0.723-0.506,1.445-0.76,2.17c-0.055,0.598-0.109,1.197-0.164,1.797
				c-0.255,0.398-0.51,0.795-0.766,1.193l-0.132,2.023c-0.103,0.686-0.204,1.371-0.306,2.057l0.009,0.186
				c-0.711,2.506-1.423,5.012-2.134,7.518l0.075-0.068c-0.215,0.762-0.43,1.523-0.645,2.287c-0.243,0.234-0.371,0.52-0.382,0.857
				c-0.269,1.059-0.536,2.117-0.805,3.176l-0.037,0.277c-0.25,0.893-0.502,1.785-0.752,2.676c-0.721,2.66-1.164,5.436-2.22,7.955
				c-2.126,5.072-4.586,10.008-6.907,15c-0.303,0.676-0.605,1.354-0.907,2.029l-1.23,2.906c-0.596,1.359-1.192,2.721-1.788,4.082
				c-2.681,5.623-5.361,11.246-8.041,16.867c-7.9,13.385-15.723,26.814-23.736,40.129c-3.625,6.025-7.631,11.82-11.464,17.719
				l0.026-0.016c-1.328,1.711-2.657,3.422-3.986,5.131c-0.277,0.303-0.554,0.605-0.831,0.908c-0.743,1.023-1.485,2.045-2.229,3.066
				c-0.26,0.303-0.519,0.604-0.779,0.904c-0.759,1.025-1.517,2.051-2.274,3.076l-1.72,1.922c-0.309,0.4-0.618,0.799-0.927,1.199
				c-1.021,1.271-2.042,2.543-3.063,3.816c-0.31,0.393-0.619,0.785-0.93,1.178c-10.646,11.777-21.188,23.652-31.975,35.303
				c-7.889,8.52-16.096,16.746-24.16,25.104c-5.973,5.289-11.976,10.543-17.905,15.879c-3.736,3.361-7.363,6.844-11.039,10.271
				c-3.231,2.313-6.534,4.533-9.683,6.951c-12.771,9.801-25.034,20.342-38.336,29.355c-23.47,15.906-47.377,31.195-71.477,46.139
				c-11.611,7.201-24.076,13.027-36.813,19.826c1.624-0.104,2.654,0.074,3.479-0.258c9.484-3.811,19.113-7.32,28.366-11.635
				c27.562-12.852,55.253-25.477,82.357-39.242c23.408-11.889,46.444-24.615,68.998-38.053
				c34.372-20.479,67.815-42.49,99.022-67.592c21.745-17.492,43.582-35.045,63.742-54.283c20.454-19.52,39.895-40.322,57.924-62.096
				c15.854-19.146,29.867-39.945,43.372-60.867c15.274-23.66,26.915-49.301,35.65-76.122c6.39-19.62,10.556-39.7,12.845-60.298
				C4431.176,307.025,4430.654,288.649,4427.982,270.357z"/>
		</g>
	</g>
</g>
<g id="Layer_2">
	<g>
		<g>
			
				<linearGradient id="SVGID_2_" gradientUnits="userSpaceOnUse" x1="-2082.8354" y1="520.1533" x2="-162.8354" y2="520.1533" gradientTransform="matrix(1 0 0 1 2082.8354 1118.4658)">
				<stop  offset="0" style="stop-color:#E8EDF2"/>
				<stop  offset="0.1393" style="stop-color:#D9E0E8"/>
				<stop  offset="0.3213" style="stop-color:#CDD6E0"/>
				<stop  offset="0.5" style="stop-color:#C9D2DD"/>
				<stop  offset="0.6888" style="stop-color:#CCD5DF"/>
				<stop  offset="0.8517" style="stop-color:#D7DEE6"/>
				<stop  offset="1" style="stop-color:#E8EDF2"/>
			</linearGradient>
			<path fill="url(#SVGID_2_)" d="M532.79,1863.07c-0.83,0.084-1.666,0.125-2.486,0.264c-16.5,2.827-33.002,5.637-49.5,8.465h54.406
				c-0.498-2.869-0.995-5.74-1.5-8.603C533.692,1863.104,533.109,1863.111,532.79,1863.07z M842.19,1571.799h-78.589
				c-0.206,0.213-0.412,0.425-0.618,0.636c-2.598,2.308-5.307,4.519-7.767,6.939c-5.827,5.735-11.537,11.567-17.294,17.357
				l-0.005-0.05c-0.436,0.303-0.872,0.607-1.309,0.911c-0.4,0.465-0.803,0.93-1.204,1.395c-0.197,0.317-0.393,0.637-0.587,0.955
				l0.025-0.051c-0.237,0.009-0.449,0.085-0.634,0.228c-3.639,3.848-7.371,7.628-10.897,11.557
				c-15.548,17.315-31.686,34.209-44.631,53.324c-8.852,13.072-18.436,25.752-25.383,39.791c-0.175,0.469-0.352,0.938-0.526,1.405
				l0.051-0.022l-0.001,0.004c-2.566,4.867-5.133,9.732-7.698,14.6l-6.165,10.98c-0.944-0.561-1.992-1.018-2.815-1.697
				c-8.044-6.646-16.028-13.35-24.075-19.99c-14.511-11.979-29.049-23.926-43.577-35.888c-1.347-0.35-2.769-1.177-4.025-0.977
				c-8.188,1.309-16.334,2.841-24.497,4.301l-11.603,1.989c2.795,1.944,5.024,3.497,7.254,5.047
				c0.314,0.176,0.626,0.351,0.939,0.523l-0.007,0.002c0.917,0.936,1.834,1.871,2.751,2.807c0.842,0.707,1.68,1.425,2.532,2.125
				c13.948,11.494,27.886,23,41.851,34.477c11.203,9.208,22.472,18.354,33.646,27.592c3.691,3.051,7.174,6.304,10.752,9.465
				c-0.948,3.563-1.898,7.125-2.846,10.686l-0.363,13.792c0.121-4.598,0.243-9.194,0.362-13.792
				c-0.955,4.295-1.909,8.59-2.865,12.888c-0.075,0.837-0.15,1.673-0.226,2.509c-0.146,0.307-0.293,0.613-0.44,0.921
				c-0.09,0.776-0.182,1.551-0.272,2.328c-0.189,1.929-0.378,3.858-0.566,5.786c0.004,0.221,0.009,0.447,0.015,0.67l-0.127,0.141
				l0.095,0.154c-0.308,10.742-1.494,21.564-0.689,32.205c0.921,12.156,3.675,24.143,8.108,35.639
				c0.823,2.137,1.708,4.245,2.625,6.34h33.06c-0.953-3.254-1.816-6.556-2.583-9.908c-0.489-2.134-0.091-4.457-0.187-6.688
				c-0.379-8.881-1.319-17.758-1.073-26.643c0.457-16.216,3.855-32.175,8.888-47.84c9.37-29.149,24.341-56.112,42.545-81.598
				c9.167-12.836,19.232-25.261,29.989-37.051c13.5-14.795,27.653-29.168,42.375-42.97
				C802.087,1602.064,821.741,1586.485,842.19,1571.799z M451.851,1693.245l-0.155,0.042c-4.145,0.699-8.291,1.394-12.435,2.1
				c-39.683,6.758-77.39,13.206-117.068,19.983c0,0-13.215,2.261-13.192,2.222l5.046,26.032c0,0,91.444-15.506,133.609-22.724
				c-0.869,2.234-1.739,4.47-2.609,6.705c-1.149,1.932-2.348,3.843-3.443,5.798c-25.829,46.128-51.656,92.256-77.455,138.396h34.592
				c34.855-62.539,69.573-124.827,104.626-187.721L451.851,1693.245z M982.213,1603.879c0.817-1.582,0.065-2.018-1.554-1.765
				c-6.739,1.054-13.475,2.119-20.209,3.181c-0.947,0.147-1.896,0.297-2.844,0.443c-2.067,0.355-4.135,0.711-6.374,1.095
				l1.187,6.919c0.182,1.061,0.364,2.121,0.545,3.181c1.95,10.71,3.951,21.41,5.841,32.13c3.023,17.152,5.998,34.313,8.943,51.48
				c3.385,19.736,6.715,39.483,10.069,59.225c0.083,1.662,0.165,3.32,0.245,4.98c-0.614-0.27-1.322-0.442-1.832-0.828
				c-4.51-3.381-8.928-6.857-13.471-10.199c-9.665-7.104-19.422-14.105-29.078-21.219c-13.744-10.125-27.401-20.35-41.154-30.463
				c-13.654-10.043-27.411-19.97-41.071-30.007c-17.227-12.655-34.402-25.367-51.602-38.054c-1-0.319-2.086-1.061-2.987-0.885
				c-4.239,0.833-8.43,1.918-12.637,2.915c-1.859,0.153-3.718,0.308-5.576,0.463c-1.737,0.204-3.472,0.41-5.371,0.634
				c0.597,2.638,1.115,4.929,1.632,7.218c0.237,1.15,0.473,2.299,0.709,3.45c0.611,4.305,1.116,8.63,1.85,12.914
				c9.599,56.193,19.229,112.381,28.862,168.571c0.11,0.636,0.345,1.249,0.52,1.875l1.527,8.895l30.332-5.205l-26.601-155.009
				c0.243-0.247,0.484-0.494,0.728-0.738c0.401,0.506,0.706,1.119,1.219,1.505c10.591,7.94,21.164,15.896,31.817,23.764
				c20.782,15.349,41.645,30.604,62.41,45.969c24.696,18.279,49.436,36.509,73.888,55.048c5.021,3.807,9.675,5.359,16.243,3.572
				c5.941-1.617,12.182-2.217,18.5-3.301c-0.33-1.92-0.584-3.413-0.84-4.907C1004.791,1735.109,993.501,1669.493,982.213,1603.879z
				 M1563.087,1571.799c-0.002,3.771-0.176,7.564-0.158,11.334l0.012-0.021c-0.098,0.499-0.198,0.996-0.299,1.494
				c0.028,0.391,0.053,0.787,0.08,1.178c-0.136,0.291-0.272,0.577-0.41,0.864l0.129,1.322c0.004,0.456,0.008,0.91,0.012,1.364
				l0.026,0.12c-0.228,1.704-0.457,3.408-0.685,5.11l0.045-0.054c-0.068,0.519-0.137,1.036-0.204,1.555
				c-0.148,0.181-0.205,0.38-0.177,0.6c-0.073,0.714-0.146,1.431-0.221,2.147l0.005,0.182c-0.079,0.608-0.16,1.213-0.238,1.818
				c-0.218,1.806-0.228,3.649-0.698,5.404c-0.949,3.532-2.152,7.015-3.248,10.521c-0.143,0.474-0.282,0.945-0.423,1.418
				l-0.554,2.025c-0.272,0.951-0.545,1.9-0.818,2.852c-1.283,3.956-2.568,7.91-3.85,11.863c-4.136,9.599-8.211,19.218-12.436,28.786
				c-1.91,4.329-4.115,8.557-6.188,12.83l0.018-0.013c-0.756,1.266-1.512,2.531-2.266,3.796c-0.164,0.229-0.329,0.458-0.491,0.686
				c-0.415,0.754-0.831,1.502-1.247,2.252c-0.149,0.227-0.3,0.453-0.454,0.68c-0.423,0.752-0.851,1.507-1.275,2.262
				c-0.337,0.482-0.675,0.965-1.011,1.45c-0.174,0.294-0.35,0.589-0.526,0.886c-0.585,0.945-1.169,1.89-1.753,2.836
				c-0.178,0.29-0.355,0.582-0.533,0.873c-6.264,8.897-12.443,17.844-18.824,26.678c-4.664,6.458-9.59,12.77-14.4,19.143
				c-3.658,4.142-7.347,8.264-10.973,12.43c-2.282,2.625-4.477,5.313-6.711,7.974c-2.042,1.886-4.145,3.722-6.114,5.665
				c-7.995,7.881-15.546,16.178-24.007,23.617c-14.926,13.126-30.232,25.906-45.713,38.486
				c-7.457,6.063-15.676,11.342-23.978,17.283c1.142-0.265,1.895-0.277,2.444-0.591c6.32-3.614,12.781-7.054,18.881-10.968
				c18.174-11.654,36.464-23.177,54.213-35.366c15.324-10.526,30.297-21.548,44.844-32.967c22.171-17.405,43.513-35.688,62.92-55.69
				c13.526-13.938,27.109-27.926,39.314-42.797c12.381-15.088,23.898-30.882,34.309-47.13c9.152-14.286,16.814-29.415,24.1-44.561
				c0.26-0.54,0.51-1.083,0.764-1.625H1563.087z M1442.297,1732.539c11.272-1.756,22.507-3.765,33.752-5.711
				c0.606-0.105,1.183-0.386,2.077-0.689c-15.926-12.328-31.566-24.387-47.146-36.508c-21.717-16.893-43.379-33.838-65.102-50.724
				c-1.404-1.091-1.719-1.865-0.635-3.515c6.817-10.382,13.47-20.85,20.184-31.287c6.932-10.771,13.871-21.537,20.806-32.307
				h-34.294c-9.512,14.833-19.023,29.665-28.536,44.498c-1.213,1.053-2.429,2.109-3.642,3.163c-0.409-0.501-0.732-1.091-1.241-1.489
				c-11.718-9.199-23.476-18.364-35.193-27.564c-7.891-6.197-15.771-12.405-23.656-18.607h-47.453
				c4.064,3.286,8.11,6.592,12.245,9.803c15.895,12.354,31.837,24.656,47.77,36.972c10.758,8.317,21.531,16.625,32.295,24.936
				l-0.314,1.798c0.102,0.523,0.104,1.106,0.206,1.63c-0.102-0.524-0.104-1.107-0.206-1.631c-0.408,0.543-0.855,1.069-1.221,1.633
				c-14.141,21.941-28.297,43.874-42.4,65.833c-6.799,10.586-13.5,21.223-20.246,31.84c-0.465,0.742-0.931,1.48-1.396,2.223
				c-1.126,2.141-2.25,4.282-3.375,6.422c-0.766,0.854-1.529,1.711-2.295,2.563c-2.261,3.326-4.521,6.652-7.11,10.466
				c12.693-2.178,24.616-4.276,36.563-6.226c2.108-0.341,3.361-1.206,4.404-2.836c14.287-22.337,28.609-44.655,42.938-66.97
				c6.088-9.482,12.21-18.945,18.396-28.542c5.144,4.098,10.037,8.053,14.993,11.936c24.571,19.246,49.139,38.497,73.804,57.641
				C1438.482,1732.233,1440.699,1732.785,1442.297,1732.539z M1203.419,1746.654c-10.387,1.728-20.779,3.426-31.163,5.186
				c-19.948,3.383-39.891,6.799-59.835,10.203c-0.165-0.404-0.413-0.793-0.487-1.213c-3.399-19.867-6.791-39.734-10.168-59.608
				c-0.119-0.7-0.073-1.429-0.118-2.405l91.465-15.695l-4.404-25.653c-0.691-0.144-1.428-0.514-2.078-0.4
				c-29.662,5.145-59.316,10.328-88.973,15.513c-0.4-0.686-1.04-1.329-1.167-2.062c-3.072-17.692-6.089-35.395-9.116-53.096
				c-0.381-2.227-0.764-4.455-1.227-7.14l95.055-16.311l-3.806-22.173h-22.565c-33.051,5.847-66.1,11.698-99.148,17.551
				c-1.742,0.27-3.551,0.362-5.198,0.897c-0.659,0.211-0.97,1.4-1.438,2.143c0.28,1.564,0.56,3.127,0.838,4.691
				c0.192,1.278,0.384,2.556,0.577,3.832c4.848,28.308,9.682,56.616,14.549,84.921c1.365,7.932,2.821,15.848,4.236,23.768
				c3.484,19.134,6.969,38.268,10.456,57.402c0.905,4.932,1.81,9.865,2.712,14.799c0.218,0.895,0.437,1.793,0.653,2.69
				c0.165,1.714,0.272,3.435,0.51,5.138c0.606,4.379,0.632,4.373,5.428,3.551l121.782-20.899l4.145-0.71l-4.482-26.125
				L1203.419,1746.654z"/>
		</g>
	</g>
</g>
<g id="Layer_4">
	<g>
		<g>
			<path fill="#E8EDF2" d="M478.173,1709.24c-4.116,0.695-8.234,1.385-12.35,2.086c-39.452,6.719-76.942,13.129-116.39,19.867
				c0,0-13.14,2.248-13.12,2.209l5.045,26.033c0,0,90.916-15.414,132.839-22.592c-0.863,2.232-1.727,4.469-2.589,6.701
				c-1.142,1.93-2.331,3.839-3.419,5.795c-22.696,40.806-45.391,81.612-68.068,122.427h34.385
				c31.646-57.159,63.21-114.17,95.054-171.685l-51.218,9.113L478.173,1709.24z M879.624,1578.759
				c3.406-2.36,6.841-4.686,10.292-6.992h-82.994c-2.49,2.071-4.98,4.143-7.448,6.238c-3.487,2.961-6.802,6.098-10.195,9.155
				c-0.337,0.291-0.676,0.583-1.016,0.872c-0.216,0.224-0.432,0.45-0.65,0.673c-2.58,2.306-5.271,4.514-7.715,6.931
				c-5.789,5.728-11.46,11.554-17.18,17.337l-0.007-0.048c-0.433,0.302-0.865,0.604-1.299,0.909
				c-0.399,0.463-0.799,0.928-1.196,1.394c-0.196,0.315-0.389,0.635-0.584,0.955l0.025-0.051c-0.235,0.008-0.445,0.085-0.629,0.225
				c-3.614,3.845-7.322,7.622-10.825,11.546c-15.443,17.297-31.474,34.173-44.329,53.273c-8.79,13.062-18.31,25.732-25.204,39.761
				c-0.173,0.466-0.346,0.935-0.521,1.404l0.051-0.023v0.004c-2.548,4.862-5.095,9.726-7.643,14.591l-6.119,10.971
				c-0.939-0.561-1.981-1.02-2.8-1.699c-8.006-6.65-15.953-13.361-23.96-20.01c-14.442-11.99-28.912-23.952-43.368-35.922
				c-1.339-0.355-2.752-1.182-4.004-0.982c-8.137,1.301-16.24,2.824-24.354,4.275l-11.537,1.98c2.781,1.945,5,3.5,7.221,5.053
				c0.311,0.176,0.621,0.348,0.934,0.523h-0.008c0.912,0.938,1.824,1.874,2.736,2.812c0.84,0.707,1.675,1.425,2.522,2.126
				c13.881,11.506,27.751,23.021,41.649,34.511c11.15,9.219,22.362,18.372,33.484,27.62c3.671,3.055,7.142,6.309,10.702,9.473
				c-0.939,3.562-1.88,7.123-2.819,10.682l-0.35,13.79c0.116-4.599,0.232-9.194,0.349-13.79c-0.947,4.295-1.891,8.586-2.837,12.881
				c-0.074,0.838-0.148,1.675-0.222,2.51c-0.147,0.307-0.29,0.613-0.438,0.922c-0.087,0.775-0.179,1.549-0.268,2.326
				c-0.187,1.928-0.373,3.855-0.559,5.786c0.006,0.223,0.011,0.444,0.018,0.669l-0.127,0.139l0.093,0.156
				c-0.295,10.738-1.462,21.561-0.653,32.199c0.667,8.746,2.293,17.401,4.792,25.854h36.035c-0.003-0.146-0.002-0.291-0.009-0.435
				c-0.384-8.882-1.33-17.758-1.091-26.643c0.439-16.211,3.799-32.164,8.792-47.819c9.288-29.142,24.151-56.083,42.227-81.546
				c9.105-12.825,19.102-25.239,29.787-37.016c13.41-14.781,27.469-29.137,42.097-42.922
				C830.426,1614.696,854.536,1596.141,879.624,1578.759z M1463.277,1749.436c11.209-1.744,22.379-3.741,33.56-5.676
				c0.603-0.105,1.176-0.385,2.063-0.687c-15.848-12.345-31.41-24.415-46.916-36.548c-21.61-16.91-43.17-33.875-64.785-50.779
				c-1.398-1.092-1.712-1.866-0.634-3.517c6.769-10.372,13.372-20.833,20.039-31.261c10.489-16.4,20.987-32.796,31.465-49.202
				h-34.146c-13.032,20.451-26.063,40.902-39.097,61.351c-1.204,1.053-2.41,2.107-3.616,3.16c-0.408-0.501-0.73-1.09-1.235-1.49
				c-11.665-9.21-23.361-18.383-35.025-27.596c-14.455-11.418-28.866-22.887-43.367-34.261c-0.891-0.698-2.389-0.756-3.604-1.11
				c-8.936,1.512-17.871,3.026-26.807,4.539c-2.768,0.692-5.533,1.382-9.252,2.313c1.867,1.425,3.043,2.323,4.219,3.221l0.001-0.002
				c0.258,0.187,0.515,0.375,0.77,0.561c0.587,0.526,1.176,1.052,1.764,1.579c0.444,0.37,0.89,0.736,1.337,1.106
				c0.66,0.524,1.322,1.048,1.984,1.573c4.8,3.879,9.542,7.82,14.412,11.627c15.82,12.364,31.685,24.682,47.54,37.013
				c10.704,8.325,21.425,16.639,32.139,24.959l-0.312,1.797c0.1,0.524,0.104,1.108,0.203,1.632c-0.1-0.524-0.104-1.108-0.205-1.63
				c-0.405,0.541-0.849,1.065-1.211,1.63c-14.041,21.924-28.096,43.839-42.101,65.781c-6.751,10.578-13.403,21.207-20.103,31.816
				c-0.461,0.742-0.923,1.479-1.386,2.221c-1.116,2.139-2.235,4.278-3.351,6.416c-0.76,0.855-1.52,1.708-2.279,2.563
				c-2.244,3.322-4.488,6.648-7.062,10.457c12.62-2.165,24.477-4.252,36.354-6.189c2.096-0.34,3.342-1.203,4.375-2.83
				c14.188-22.32,28.406-44.621,42.634-66.918c6.044-9.475,12.122-18.932,18.266-28.52c5.118,4.102,9.987,8.06,14.922,11.947
				c24.451,19.267,48.899,38.538,73.446,57.703C1459.484,1749.127,1461.688,1749.684,1463.277,1749.436z M1581.666,1571.767
				c0.443,3.084,0.838,6.174,1.193,9.263c0.723,6.3,0.198,12.753,0.232,19.139l0.012-0.016c-0.098,0.497-0.196,0.994-0.296,1.492
				c0.028,0.391,0.056,0.785,0.082,1.179c-0.134,0.286-0.272,0.573-0.407,0.861l0.131,1.321c0.003,0.457,0.006,0.91,0.011,1.366
				l0.026,0.119c-0.225,1.702-0.449,3.406-0.677,5.108l0.048-0.053c-0.07,0.518-0.137,1.033-0.203,1.552
				c-0.146,0.181-0.205,0.38-0.176,0.601c-0.074,0.715-0.144,1.429-0.217,2.145l0.004,0.185c-0.078,0.605-0.158,1.212-0.234,1.816
				c-0.215,1.804-0.223,3.648-0.688,5.4c-0.942,3.532-2.136,7.015-3.224,10.518c-0.14,0.471-0.277,0.944-0.418,1.419l-0.545,2.023
				c-0.271,0.949-0.541,1.899-0.814,2.85c-1.27,3.953-2.543,7.907-3.816,11.856c-4.102,9.595-8.146,19.209-12.334,28.771
				c-1.897,4.328-4.088,8.553-6.145,12.822l0.018-0.014c-0.75,1.266-1.5,2.529-2.25,3.795c-0.163,0.228-0.324,0.456-0.488,0.684
				c-0.412,0.752-0.822,1.502-1.234,2.25c-0.15,0.228-0.3,0.453-0.453,0.678c-0.42,0.754-0.844,1.506-1.265,2.26
				c-0.336,0.484-0.669,0.967-1.003,1.449c-0.176,0.295-0.348,0.59-0.523,0.886c-0.582,0.946-1.162,1.89-1.742,2.835
				c-0.174,0.291-0.35,0.582-0.525,0.872c-6.223,8.892-12.361,17.831-18.695,26.655c-4.635,6.453-9.523,12.756-14.302,19.127
				c-3.635,4.137-7.296,8.254-10.897,12.416c-2.271,2.621-4.447,5.307-6.668,7.966c-2.029,1.884-4.116,3.718-6.072,5.659
				c-7.945,7.872-15.446,16.16-23.851,23.588c-14.831,13.11-30.038,25.875-45.421,38.439c-7.41,6.053-15.578,11.324-23.828,17.256
				c1.137-0.266,1.886-0.276,2.432-0.589c6.282-3.608,12.699-7.042,18.764-10.948c18.063-11.633,36.238-23.137,53.875-35.308
				c15.23-10.509,30.107-21.513,44.563-32.918c22.029-17.384,43.236-35.641,62.515-55.62c13.437-13.924,26.93-27.896,39.05-42.754
				c12.3-15.074,23.738-30.854,34.074-47.088c9.086-14.277,16.691-29.396,23.92-44.531c2.942-6.159,5.52-12.428,7.768-18.784
				H1581.666z M1005.647,1620.354c0.813-1.578,0.063-2.017-1.546-1.765c-6.699,1.046-13.396,2.104-20.094,3.161
				c-0.94,0.147-1.885,0.294-2.826,0.44c-2.056,0.354-4.111,0.706-6.338,1.087l1.188,6.922c0.182,1.06,0.363,2.12,0.547,3.179
				c1.948,10.709,3.947,21.411,5.836,32.131c3.021,17.152,5.998,34.313,8.944,51.48c3.385,19.736,6.718,39.483,10.069,59.225
				c0.084,1.66,0.168,3.32,0.25,4.98c-0.613-0.273-1.315-0.447-1.824-0.83c-4.485-3.386-8.883-6.867-13.404-10.209
				c-9.615-7.115-19.326-14.123-28.935-21.246c-13.677-10.136-27.268-20.371-40.953-30.498
				c-13.586-10.054-27.277-19.991-40.87-30.039c-17.143-12.67-34.235-25.396-51.348-38.1c-0.995-0.319-2.076-1.063-2.972-0.888
				c-4.215,0.829-8.379,1.911-12.564,2.904c-1.848,0.151-3.697,0.305-5.546,0.458c-1.726,0.203-3.452,0.406-5.338,0.627
				c0.595,2.64,1.113,4.929,1.63,7.222c0.235,1.15,0.471,2.297,0.708,3.448c0.61,4.305,1.119,8.629,1.85,12.914
				c9.602,56.192,19.23,112.381,28.864,168.569c0.109,0.638,0.344,1.252,0.52,1.875l1.526,8.896l30.156-5.173l-26.6-155.008
				c0.24-0.248,0.48-0.494,0.722-0.742c0.4,0.51,0.703,1.123,1.214,1.508c10.539,7.951,21.061,15.914,31.662,23.791
				c20.68,15.366,41.441,30.639,62.105,46.023c24.575,18.296,49.192,36.547,73.526,55.105c4.994,3.813,9.623,5.371,16.156,3.59
				c5.904-1.612,12.107-2.205,18.393-3.283c-0.33-1.92-0.584-3.414-0.84-4.908
				C1028.225,1751.586,1016.937,1685.971,1005.647,1620.354z M1225.754,1763.32c-10.331,1.717-20.663,3.404-30.987,5.155
				c-19.832,3.362-39.66,6.76-59.488,10.142c-0.164-0.403-0.414-0.791-0.484-1.211c-3.402-19.869-6.795-39.736-10.17-59.609
				c-0.116-0.7-0.074-1.429-0.119-2.406l90.937-15.605l-4.402-25.65c-0.691-0.146-1.421-0.515-2.069-0.404
				c-29.489,5.117-58.975,10.273-88.461,15.426c-0.396-0.687-1.033-1.329-1.161-2.062c-3.07-17.692-6.087-35.397-9.116-53.099
				c-0.379-2.226-0.762-4.453-1.224-7.137l94.504-16.218l-4.427-25.796l-5.885,1.01c-0.473,0.003-0.959-0.06-1.414,0.021
				c-37.699,6.667-75.396,13.346-113.095,20.022c-1.733,0.269-3.53,0.359-5.168,0.892c-0.655,0.211-0.962,1.399-1.428,2.143
				c0.279,1.563,0.56,3.125,0.837,4.689c0.193,1.279,0.385,2.557,0.578,3.833c4.849,28.307,9.684,56.617,14.551,84.921
				c1.363,7.932,2.82,15.848,4.233,23.769c3.484,19.134,6.969,38.267,10.454,57.399c0.904,4.933,1.807,9.868,2.713,14.799
				c0.215,0.898,0.433,1.795,0.648,2.693c0.168,1.713,0.275,3.435,0.513,5.139c0.608,4.375,0.632,4.371,5.399,3.555l121.082-20.777
				l4.12-0.71l-4.481-26.122L1225.754,1763.32z"/>
		</g>
	</g>
</g>
<g id="Layer_5">
</g>
</svg>
