<?xml version="1.0" encoding="utf-8"?>
<!-- Generator: Adobe Illustrator 13.0.0, SVG Export Plug-In . SVG Version: 6.00 Build 14948)  -->
<!DOCTYPE svg PUBLIC "-//W3C//DTD SVG 1.1//EN" "http://www.w3.org/Graphics/SVG/1.1/DTD/svg11.dtd">
<svg version="1.1" id="Layer_1" xmlns="http://www.w3.org/2000/svg" xmlns:xlink="http://www.w3.org/1999/xlink" x="0px" y="0px"
	 width="1925px" height="653.521px" viewBox="0 0 1925 653.521" enable-background="new 0 0 1925 653.521" xml:space="preserve">
<g id="Layer_1_1_">
</g>
<g id="Layer_6">
	
		<linearGradient id="SVGID_1_" gradientUnits="userSpaceOnUse" x1="-652" y1="80.2275" x2="1268" y2="80.2275" gradientTransform="matrix(1 0 0 -1 654 406.5215)">
		<stop  offset="0" style="stop-color:#E8EDF2"/>
		<stop  offset="0.1753" style="stop-color:#E3E9EF"/>
		<stop  offset="0.3734" style="stop-color:#D6DDE6"/>
		<stop  offset="0.5" style="stop-color:#C9D2DD"/>
		<stop  offset="0.6435" style="stop-color:#D9E0E8"/>
		<stop  offset="0.8185" style="stop-color:#E4EAEF"/>
		<stop  offset="1" style="stop-color:#E8EDF2"/>
	</linearGradient>
	<rect x="2" y="176.294" fill="url(#SVGID_1_)" width="1920" height="300"/>
</g>
<g id="Layer_3">
</g>
<g id="Layer_2">
	<g>
		<g>
			
				<linearGradient id="SVGID_2_" gradientUnits="userSpaceOnUse" x1="-2739.8354" y1="1198.6904" x2="-819.8356" y2="1198.6904" gradientTransform="matrix(1 0 0 -1 2736.8359 1524.9863)">
				<stop  offset="0" style="stop-color:#E8EDF2"/>
				<stop  offset="0.1393" style="stop-color:#D9E0E8"/>
				<stop  offset="0.3213" style="stop-color:#CDD6E0"/>
				<stop  offset="0.5" style="stop-color:#C9D2DD"/>
				<stop  offset="0.6888" style="stop-color:#CCD5DF"/>
				<stop  offset="0.8517" style="stop-color:#D7DEE6"/>
				<stop  offset="1" style="stop-color:#E8EDF2"/>
			</linearGradient>
			<path fill="url(#SVGID_2_)" d="M529.79,467.566c-0.83,0.084-1.666,0.125-2.486,0.264c-16.5,2.827-33.002,5.638-49.5,8.466h54.406
				c-0.498-2.869-0.995-5.74-1.5-8.604C530.692,467.6,530.109,467.607,529.79,467.566z M839.189,176.294h-78.588
				c-0.207,0.213-0.412,0.425-0.618,0.636c-2.599,2.308-5.308,4.519-7.768,6.939c-5.827,5.735-11.537,11.567-17.294,17.357
				l-0.005-0.05c-0.437,0.303-0.872,0.607-1.31,0.911c-0.399,0.465-0.803,0.93-1.203,1.395c-0.197,0.317-0.394,0.637-0.587,0.955
				l0.024-0.051c-0.236,0.009-0.449,0.085-0.634,0.228c-3.639,3.848-7.371,7.628-10.897,11.557
				c-15.547,17.315-31.686,34.209-44.631,53.325c-8.852,13.071-18.436,25.752-25.383,39.791c-0.175,0.469-0.352,0.938-0.525,1.404
				l0.051-0.021l-0.001,0.004c-2.566,4.867-5.133,9.731-7.698,14.6l-6.165,10.98c-0.944-0.562-1.992-1.019-2.814-1.697
				c-8.044-6.646-16.028-13.35-24.075-19.99c-14.512-11.979-29.049-23.926-43.577-35.888c-1.347-0.351-2.769-1.177-4.025-0.978
				c-8.188,1.309-16.334,2.842-24.497,4.301l-11.603,1.99c2.795,1.943,5.024,3.496,7.254,5.047c0.313,0.176,0.626,0.351,0.938,0.522
				l-0.007,0.002c0.917,0.937,1.834,1.871,2.751,2.808c0.842,0.707,1.681,1.424,2.532,2.125c13.948,11.493,27.886,23,41.851,34.477
				c11.203,9.208,22.473,18.354,33.646,27.592c3.691,3.051,7.174,6.304,10.752,9.465c-0.948,3.563-1.898,7.125-2.846,10.687
				l-0.363,13.792c0.121-4.599,0.243-9.194,0.362-13.792c-0.955,4.295-1.909,8.59-2.865,12.888
				c-0.075,0.837-0.149,1.673-0.226,2.509c-0.146,0.308-0.293,0.613-0.44,0.921c-0.09,0.776-0.182,1.552-0.272,2.328
				c-0.188,1.929-0.377,3.858-0.565,5.786c0.004,0.221,0.009,0.447,0.015,0.67l-0.127,0.142l0.096,0.153
				c-0.309,10.742-1.494,21.564-0.689,32.205c0.921,12.156,3.675,24.144,8.107,35.639c0.823,2.138,1.709,4.245,2.625,6.341h33.061
				c-0.953-3.255-1.816-6.557-2.583-9.908c-0.489-2.134-0.091-4.457-0.187-6.688c-0.38-8.881-1.319-17.758-1.073-26.643
				c0.457-16.216,3.854-32.175,8.888-47.84c9.37-29.149,24.341-56.112,42.545-81.599c9.167-12.836,19.232-25.261,29.989-37.051
				c13.5-14.795,27.653-29.168,42.375-42.97C799.087,206.561,818.741,190.981,839.189,176.294z M448.852,297.741l-0.155,0.042
				c-4.146,0.699-8.291,1.395-12.436,2.1c-39.683,6.759-77.39,13.207-117.067,19.983c0,0-13.215,2.261-13.192,2.223l5.046,26.031
				c0,0,91.444-15.506,133.609-22.724c-0.869,2.234-1.739,4.47-2.609,6.705c-1.148,1.932-2.348,3.843-3.443,5.798
				c-25.828,46.128-51.655,92.256-77.454,138.396h34.592c34.854-62.539,69.573-124.827,104.626-187.722L448.852,297.741z
				 M979.213,208.375c0.817-1.582,0.065-2.018-1.554-1.765c-6.739,1.054-13.476,2.119-20.209,3.181
				c-0.947,0.147-1.896,0.297-2.845,0.443c-2.066,0.355-4.135,0.711-6.373,1.095l1.187,6.919c0.183,1.061,0.364,2.121,0.545,3.181
				c1.95,10.71,3.951,21.41,5.841,32.13c3.023,17.151,5.998,34.313,8.943,51.479c3.385,19.736,6.715,39.483,10.069,59.226
				c0.083,1.662,0.165,3.319,0.245,4.979c-0.614-0.27-1.322-0.441-1.832-0.828c-4.511-3.381-8.929-6.856-13.472-10.198
				c-9.665-7.104-19.422-14.105-29.078-21.22c-13.743-10.125-27.4-20.35-41.153-30.463c-13.654-10.043-27.411-19.97-41.071-30.007
				c-17.228-12.655-34.402-25.367-51.603-38.054c-1-0.319-2.086-1.061-2.986-0.885c-4.239,0.833-8.43,1.918-12.637,2.915
				c-1.859,0.153-3.719,0.308-5.576,0.463c-1.737,0.204-3.473,0.41-5.371,0.634c0.597,2.638,1.115,4.929,1.632,7.218
				c0.237,1.15,0.474,2.299,0.709,3.45c0.611,4.305,1.116,8.63,1.851,12.914c9.599,56.193,19.229,112.381,28.861,168.571
				c0.11,0.636,0.345,1.249,0.521,1.875l1.526,8.895l30.332-5.205l-26.598-155.009c0.243-0.247,0.484-0.494,0.728-0.738
				c0.401,0.506,0.706,1.119,1.22,1.506c10.591,7.939,21.164,15.896,31.816,23.764c20.782,15.349,41.646,30.604,62.41,45.969
				c24.696,18.279,49.436,36.509,73.888,55.048c5.021,3.807,9.675,5.359,16.243,3.572c5.941-1.617,12.182-2.217,18.5-3.301
				c-0.33-1.921-0.584-3.413-0.84-4.907C1001.791,339.605,990.501,273.989,979.213,208.375z M1560.087,176.294
				c-0.002,3.771-0.176,7.564-0.157,11.334l0.012-0.021c-0.099,0.499-0.198,0.996-0.299,1.494c0.027,0.391,0.053,0.787,0.08,1.178
				c-0.137,0.291-0.272,0.577-0.41,0.864l0.129,1.322c0.004,0.456,0.008,0.91,0.012,1.364l0.025,0.12
				c-0.228,1.704-0.457,3.408-0.685,5.11l0.045-0.054c-0.067,0.519-0.137,1.036-0.204,1.555c-0.147,0.181-0.205,0.38-0.177,0.6
				c-0.073,0.714-0.146,1.431-0.221,2.147l0.005,0.182c-0.079,0.608-0.16,1.213-0.238,1.818c-0.218,1.806-0.229,3.649-0.697,5.404
				c-0.949,3.532-2.152,7.015-3.248,10.521c-0.144,0.474-0.283,0.945-0.424,1.418l-0.554,2.025c-0.272,0.951-0.545,1.9-0.817,2.852
				c-1.283,3.956-2.568,7.91-3.851,11.863c-4.136,9.599-8.211,19.218-12.437,28.785c-1.91,4.33-4.114,8.558-6.188,12.83l0.018-0.013
				c-0.756,1.267-1.512,2.531-2.266,3.796c-0.164,0.229-0.329,0.459-0.491,0.687c-0.415,0.754-0.831,1.502-1.247,2.252
				c-0.148,0.228-0.3,0.453-0.453,0.68c-0.424,0.752-0.852,1.507-1.275,2.263c-0.337,0.481-0.676,0.965-1.012,1.449
				c-0.174,0.295-0.35,0.59-0.525,0.887c-0.585,0.944-1.169,1.89-1.753,2.836c-0.179,0.289-0.354,0.582-0.533,0.873
				c-6.264,8.896-12.442,17.844-18.823,26.678c-4.664,6.458-9.591,12.77-14.4,19.143c-3.658,4.143-7.348,8.265-10.973,12.431
				c-2.283,2.625-4.478,5.313-6.712,7.974c-2.042,1.886-4.145,3.722-6.114,5.665c-7.994,7.881-15.545,16.178-24.006,23.617
				c-14.927,13.126-30.232,25.905-45.714,38.485c-7.457,6.063-15.676,11.343-23.978,17.283c1.142-0.265,1.895-0.276,2.443-0.591
				c6.32-3.614,12.781-7.054,18.881-10.968c18.174-11.654,36.465-23.177,54.213-35.366c15.324-10.526,30.298-21.548,44.845-32.967
				c22.171-17.405,43.513-35.688,62.92-55.69c13.526-13.938,27.108-27.926,39.313-42.797c12.381-15.088,23.898-30.882,34.31-47.13
				c9.151-14.286,16.813-29.415,24.1-44.561c0.261-0.54,0.511-1.083,0.765-1.625L1560.087,176.294L1560.087,176.294z
				 M1439.297,337.035c11.271-1.756,22.507-3.765,33.752-5.711c0.605-0.104,1.184-0.386,2.077-0.688
				c-15.926-12.328-31.565-24.388-47.146-36.509c-21.718-16.893-43.38-33.838-65.103-50.724c-1.404-1.091-1.719-1.865-0.635-3.515
				c6.816-10.382,13.47-20.85,20.184-31.287c6.933-10.771,13.871-21.537,20.806-32.307h-34.293
				c-9.513,14.833-19.023,29.665-28.536,44.498c-1.214,1.053-2.43,2.109-3.643,3.163c-0.409-0.501-0.731-1.091-1.241-1.489
				c-11.718-9.199-23.476-18.364-35.192-27.564c-7.892-6.197-15.771-12.405-23.656-18.607h-47.453
				c4.064,3.286,8.11,6.592,12.245,9.803c15.896,12.354,31.837,24.656,47.771,36.972c10.758,8.317,21.53,16.625,32.295,24.936
				l-0.314,1.798c0.103,0.523,0.104,1.106,0.206,1.63c-0.102-0.524-0.104-1.107-0.206-1.631c-0.407,0.543-0.854,1.069-1.221,1.633
				c-14.141,21.94-28.297,43.874-42.4,65.833c-6.799,10.586-13.5,21.223-20.245,31.84c-0.466,0.742-0.932,1.48-1.396,2.223
				c-1.126,2.142-2.25,4.282-3.375,6.423c-0.766,0.854-1.529,1.711-2.295,2.563c-2.261,3.326-4.521,6.652-7.11,10.466
				c12.693-2.178,24.616-4.275,36.563-6.226c2.107-0.341,3.36-1.206,4.404-2.836c14.286-22.337,28.608-44.655,42.938-66.97
				c6.088-9.482,12.21-18.945,18.396-28.543c5.144,4.099,10.036,8.053,14.992,11.937c24.571,19.246,49.14,38.497,73.805,57.641
				C1435.482,336.729,1437.699,337.281,1439.297,337.035z M1200.419,351.15c-10.387,1.728-20.779,3.426-31.163,5.187
				c-19.948,3.383-39.891,6.799-59.835,10.202c-0.165-0.403-0.413-0.793-0.487-1.213c-3.398-19.867-6.791-39.733-10.168-59.607
				c-0.119-0.7-0.072-1.43-0.117-2.405l91.465-15.695l-4.404-25.653c-0.691-0.144-1.428-0.514-2.078-0.399
				c-29.662,5.146-59.316,10.328-88.973,15.513c-0.4-0.686-1.04-1.328-1.167-2.062c-3.072-17.692-6.089-35.395-9.116-53.096
				c-0.381-2.227-0.764-4.455-1.228-7.14l95.056-16.311l-3.807-22.173h-22.564c-33.051,5.847-66.1,11.698-99.148,17.551
				c-1.741,0.27-3.551,0.362-5.197,0.897c-0.659,0.211-0.971,1.4-1.438,2.143c0.28,1.564,0.561,3.127,0.838,4.691
				c0.192,1.278,0.384,2.556,0.577,3.832c4.848,28.308,9.682,56.616,14.549,84.922c1.365,7.932,2.821,15.848,4.236,23.768
				c3.484,19.134,6.969,38.268,10.456,57.401c0.905,4.933,1.81,9.865,2.712,14.8c0.218,0.895,0.438,1.793,0.653,2.689
				c0.165,1.714,0.271,3.436,0.51,5.138c0.605,4.38,0.632,4.373,5.428,3.552l121.782-20.899l4.145-0.71l-4.481-26.125
				L1200.419,351.15z"/>
		</g>
	</g>
</g>
<g id="Layer_4">
	<g>
		<g>
			<path fill="#E8EDF2" d="M475.173,313.736c-4.116,0.695-8.233,1.385-12.35,2.086c-39.452,6.719-76.942,13.129-116.391,19.867
				c0,0-13.14,2.248-13.12,2.209l5.046,26.033c0,0,90.915-15.414,132.839-22.592c-0.863,2.231-1.728,4.469-2.589,6.7
				c-1.143,1.931-2.331,3.84-3.419,5.795c-22.696,40.807-45.392,81.612-68.068,122.428h34.385
				c31.646-57.159,63.21-114.17,95.055-171.685l-51.219,9.112L475.173,313.736z M876.624,183.254
				c3.406-2.36,6.841-4.686,10.292-6.992h-82.994c-2.49,2.071-4.979,4.143-7.448,6.238c-3.486,2.961-6.802,6.098-10.194,9.155
				c-0.337,0.291-0.676,0.583-1.017,0.872c-0.216,0.224-0.432,0.45-0.649,0.673c-2.58,2.306-5.271,4.514-7.715,6.931
				c-5.789,5.728-11.461,11.554-17.181,17.337l-0.007-0.048c-0.433,0.302-0.865,0.604-1.299,0.909
				c-0.399,0.463-0.799,0.928-1.196,1.394c-0.196,0.315-0.389,0.635-0.584,0.955l0.025-0.051c-0.235,0.008-0.445,0.085-0.629,0.225
				c-3.614,3.845-7.322,7.622-10.825,11.546c-15.443,17.297-31.475,34.173-44.329,53.273c-8.79,13.062-18.31,25.731-25.204,39.761
				c-0.173,0.466-0.346,0.935-0.521,1.404l0.052-0.023v0.004c-2.548,4.862-5.095,9.726-7.644,14.591l-6.119,10.972
				c-0.938-0.562-1.98-1.021-2.8-1.699c-8.006-6.65-15.952-13.361-23.96-20.01c-14.441-11.99-28.912-23.952-43.367-35.923
				c-1.34-0.354-2.753-1.182-4.005-0.981c-8.137,1.301-16.239,2.823-24.354,4.274l-11.537,1.98c2.781,1.945,5,3.5,7.221,5.053
				c0.312,0.176,0.621,0.348,0.935,0.523h-0.008c0.911,0.938,1.823,1.874,2.735,2.813c0.84,0.706,1.675,1.424,2.522,2.125
				c13.881,11.506,27.751,23.021,41.648,34.512c11.15,9.219,22.362,18.372,33.484,27.619c3.671,3.056,7.142,6.31,10.702,9.474
				c-0.939,3.562-1.88,7.123-2.819,10.682l-0.35,13.79c0.115-4.599,0.231-9.194,0.349-13.79c-0.947,4.295-1.891,8.586-2.837,12.881
				c-0.074,0.838-0.148,1.676-0.222,2.511c-0.147,0.307-0.29,0.612-0.438,0.922c-0.087,0.774-0.179,1.549-0.268,2.325
				c-0.188,1.929-0.373,3.855-0.56,5.786c0.007,0.224,0.012,0.444,0.019,0.669l-0.127,0.14l0.093,0.156
				c-0.295,10.737-1.462,21.561-0.653,32.198c0.667,8.746,2.293,17.401,4.792,25.854h36.035c-0.003-0.146-0.002-0.291-0.009-0.436
				c-0.384-8.882-1.33-17.758-1.091-26.643c0.438-16.211,3.799-32.164,8.792-47.819c9.288-29.142,24.15-56.083,42.227-81.546
				c9.105-12.824,19.103-25.238,29.787-37.016c13.41-14.781,27.469-29.137,42.097-42.922
				C827.426,219.192,851.536,200.636,876.624,183.254z M1460.277,353.932c11.209-1.744,22.379-3.741,33.56-5.676
				c0.603-0.105,1.177-0.386,2.063-0.688c-15.849-12.345-31.41-24.415-46.916-36.548c-21.61-16.91-43.17-33.875-64.785-50.779
				c-1.398-1.092-1.712-1.866-0.635-3.517c6.77-10.372,13.373-20.833,20.039-31.261c10.489-16.4,20.987-32.796,31.465-49.202
				h-34.146c-13.032,20.451-26.063,40.902-39.097,61.351c-1.204,1.053-2.41,2.107-3.616,3.16c-0.408-0.501-0.73-1.09-1.235-1.49
				c-11.665-9.21-23.36-18.383-35.024-27.596c-14.455-11.418-28.866-22.887-43.367-34.261c-0.892-0.698-2.39-0.756-3.604-1.11
				c-8.936,1.512-17.871,3.026-26.807,4.539c-2.768,0.692-5.533,1.382-9.252,2.313c1.867,1.425,3.043,2.323,4.219,3.221l0.001-0.002
				c0.259,0.187,0.516,0.375,0.771,0.561c0.587,0.526,1.176,1.052,1.764,1.579c0.444,0.37,0.891,0.736,1.337,1.106
				c0.66,0.524,1.322,1.048,1.984,1.573c4.8,3.879,9.542,7.82,14.412,11.627c15.819,12.364,31.685,24.682,47.54,37.013
				c10.704,8.325,21.425,16.639,32.139,24.959l-0.312,1.797c0.1,0.523,0.104,1.107,0.202,1.632c-0.1-0.524-0.104-1.108-0.204-1.63
				c-0.405,0.541-0.85,1.064-1.212,1.63c-14.041,21.924-28.096,43.839-42.101,65.781c-6.751,10.578-13.403,21.207-20.103,31.815
				c-0.461,0.742-0.924,1.479-1.387,2.222c-1.115,2.139-2.234,4.277-3.351,6.416c-0.76,0.854-1.521,1.708-2.279,2.563
				c-2.244,3.322-4.487,6.648-7.062,10.457c12.62-2.165,24.477-4.252,36.354-6.188c2.096-0.341,3.342-1.203,4.375-2.83
				c14.188-22.32,28.406-44.621,42.635-66.918c6.043-9.476,12.121-18.932,18.266-28.521c5.118,4.103,9.987,8.06,14.922,11.947
				c24.451,19.267,48.898,38.538,73.446,57.703C1456.484,353.623,1458.688,354.18,1460.277,353.932z M1578.666,176.263
				c0.443,3.084,0.838,6.174,1.193,9.263c0.723,6.3,0.197,12.753,0.231,19.139l0.013-0.016c-0.099,0.497-0.196,0.994-0.297,1.492
				c0.028,0.391,0.057,0.785,0.082,1.179c-0.134,0.286-0.271,0.573-0.406,0.861l0.131,1.321c0.003,0.457,0.006,0.91,0.011,1.366
				l0.026,0.119c-0.226,1.702-0.449,3.406-0.678,5.108l0.049-0.053c-0.07,0.518-0.138,1.033-0.203,1.552
				c-0.146,0.181-0.205,0.38-0.176,0.601c-0.074,0.715-0.145,1.429-0.218,2.145l0.004,0.185c-0.077,0.605-0.157,1.212-0.233,1.816
				c-0.215,1.804-0.224,3.648-0.688,5.4c-0.942,3.532-2.136,7.015-3.224,10.518c-0.141,0.471-0.277,0.944-0.418,1.419l-0.545,2.023
				c-0.271,0.949-0.541,1.899-0.814,2.85c-1.27,3.953-2.543,7.907-3.816,11.856c-4.102,9.596-8.146,19.209-12.334,28.771
				c-1.896,4.328-4.088,8.553-6.145,12.822l0.018-0.015c-0.75,1.267-1.5,2.529-2.25,3.795c-0.162,0.228-0.324,0.456-0.488,0.685
				c-0.411,0.752-0.821,1.502-1.233,2.25c-0.149,0.228-0.3,0.453-0.453,0.678c-0.42,0.754-0.844,1.506-1.265,2.26
				c-0.336,0.484-0.669,0.967-1.004,1.449c-0.176,0.295-0.348,0.59-0.522,0.886c-0.582,0.946-1.162,1.89-1.741,2.835
				c-0.175,0.291-0.351,0.582-0.525,0.872c-6.223,8.893-12.361,17.831-18.695,26.655c-4.635,6.453-9.523,12.756-14.302,19.127
				c-3.636,4.137-7.296,8.254-10.897,12.416c-2.271,2.621-4.447,5.307-6.668,7.966c-2.029,1.884-4.115,3.718-6.072,5.659
				c-7.944,7.872-15.445,16.16-23.851,23.588c-14.831,13.11-30.038,25.875-45.421,38.439c-7.41,6.053-15.578,11.323-23.828,17.256
				c1.137-0.267,1.887-0.276,2.432-0.589c6.283-3.608,12.699-7.042,18.765-10.948c18.063-11.633,36.238-23.137,53.875-35.309
				c15.229-10.509,30.106-21.513,44.563-32.918c22.028-17.384,43.235-35.641,62.515-55.619c13.437-13.924,26.93-27.896,39.05-42.754
				c12.301-15.074,23.738-30.854,34.074-47.088c9.086-14.277,16.691-29.396,23.92-44.531c2.941-6.159,5.52-12.428,7.768-18.784
				h-99.307V176.263z M1002.646,224.851c0.813-1.578,0.063-2.017-1.546-1.765c-6.698,1.046-13.396,2.104-20.094,3.161
				c-0.94,0.147-1.885,0.294-2.826,0.44c-2.056,0.354-4.11,0.706-6.338,1.087l1.188,6.922c0.182,1.06,0.362,2.12,0.547,3.179
				c1.947,10.709,3.947,21.411,5.836,32.131c3.021,17.151,5.998,34.313,8.943,51.479c3.386,19.736,6.719,39.483,10.069,59.225
				c0.084,1.66,0.168,3.32,0.25,4.98c-0.612-0.273-1.315-0.447-1.824-0.83c-4.484-3.386-8.883-6.867-13.403-10.209
				c-9.615-7.115-19.326-14.123-28.936-21.246c-13.677-10.136-27.268-20.371-40.953-30.498
				c-13.586-10.054-27.276-19.991-40.869-30.038c-17.144-12.671-34.235-25.396-51.349-38.101c-0.995-0.319-2.076-1.063-2.972-0.888
				c-4.215,0.828-8.379,1.91-12.564,2.904c-1.848,0.15-3.697,0.305-5.546,0.457c-1.726,0.203-3.452,0.406-5.338,0.627
				c0.595,2.641,1.113,4.93,1.63,7.223c0.235,1.15,0.471,2.297,0.708,3.447c0.61,4.306,1.119,8.629,1.851,12.914
				c9.602,56.192,19.229,112.382,28.863,168.569c0.109,0.638,0.344,1.252,0.521,1.875l1.525,8.896l30.156-5.174l-26.6-155.008
				c0.239-0.248,0.479-0.493,0.722-0.741c0.4,0.51,0.703,1.123,1.214,1.508c10.539,7.951,21.062,15.914,31.662,23.791
				c20.68,15.365,41.441,30.639,62.104,46.022c24.575,18.296,49.192,36.547,73.526,55.105c4.994,3.813,9.623,5.371,16.156,3.59
				c5.904-1.612,12.106-2.205,18.393-3.283c-0.329-1.92-0.584-3.414-0.84-4.908C1025.225,356.082,1013.938,290.467,1002.646,224.851
				z M1222.754,367.816c-10.331,1.717-20.663,3.404-30.986,5.155c-19.832,3.361-39.66,6.76-59.488,10.142
				c-0.164-0.403-0.414-0.791-0.484-1.211c-3.402-19.869-6.795-39.736-10.17-59.609c-0.116-0.699-0.074-1.429-0.119-2.406
				l90.938-15.604l-4.402-25.649c-0.691-0.146-1.421-0.516-2.069-0.404c-29.488,5.117-58.975,10.273-88.461,15.426
				c-0.396-0.688-1.032-1.329-1.161-2.063c-3.069-17.691-6.087-35.396-9.115-53.099c-0.379-2.226-0.763-4.453-1.225-7.137
				l94.504-16.218l-4.427-25.796l-5.885,1.01c-0.474,0.003-0.959-0.06-1.414,0.021c-37.699,6.667-75.396,13.346-113.095,20.022
				c-1.733,0.269-3.53,0.359-5.168,0.892c-0.655,0.211-0.962,1.399-1.428,2.143c0.278,1.563,0.56,3.125,0.837,4.689
				c0.192,1.279,0.385,2.557,0.577,3.833c4.85,28.307,9.685,56.617,14.552,84.92c1.362,7.933,2.819,15.849,4.232,23.77
				c3.484,19.134,6.97,38.267,10.454,57.398c0.904,4.934,1.808,9.868,2.713,14.8c0.215,0.897,0.434,1.795,0.648,2.692
				c0.168,1.713,0.275,3.436,0.513,5.14c0.608,4.375,0.632,4.371,5.399,3.555l121.082-20.777l4.12-0.71l-4.481-26.122
				L1222.754,367.816z"/>
		</g>
	</g>
</g>
<g id="Layer_5">
</g>
</svg>
