<?xml version="1.0" encoding="utf-8"?>
<!-- Generator: Adobe Illustrator 13.0.0, SVG Export Plug-In . SVG Version: 6.00 Build 14948)  -->
<!DOCTYPE svg PUBLIC "-//W3C//DTD SVG 1.1//EN" "http://www.w3.org/Graphics/SVG/1.1/DTD/svg11.dtd">
<svg version="1.1" id="Layer_1" xmlns="http://www.w3.org/2000/svg" xmlns:xlink="http://www.w3.org/1999/xlink" x="0px" y="0px"
	 width="1920px" height="300.036px" viewBox="0 0 1920 300.036" enable-background="new 0 0 1920 300.036" xml:space="preserve">
<g id="Layer_6">
	<linearGradient id="SVGID_1_" gradientUnits="userSpaceOnUse" x1="0" y1="150.0337" x2="1920" y2="150.0337">
		<stop  offset="0" style="stop-color:#697EA2"/>
		<stop  offset="0.5165" style="stop-color:#7D94B8"/>
		<stop  offset="1" style="stop-color:#697EA2"/>
	</linearGradient>
	<polyline fill="url(#SVGID_1_)" points="0,300.034 0,0.034 1920,0.034 1920,300.034 	"/>
</g>
<g id="Layer_2">
	<g>
		<g>
			<path fill="#849ABF" d="M805.189,0.034h-78.588c-0.207,0.213-0.412,0.425-0.618,0.636c-2.6,2.308-5.309,4.519-7.769,6.939
				c-5.827,5.735-11.537,11.567-17.294,17.357l-0.005-0.05c-0.438,0.303-0.872,0.607-1.311,0.911
				c-0.398,0.465-0.803,0.93-1.202,1.395c-0.197,0.317-0.395,0.637-0.587,0.955l0.023-0.051c-0.236,0.009-0.449,0.085-0.634,0.228
				c-3.639,3.848-7.371,7.628-10.897,11.557c-15.547,17.315-31.686,34.209-44.631,53.325c-8.852,13.071-18.436,25.752-25.383,39.791
				c-0.175,0.469-0.352,0.938-0.525,1.404l0.052-0.021l-0.001,0.004c-2.566,4.867-5.133,9.731-7.698,14.6l-6.165,10.98
				c-0.943-0.563-1.992-1.02-2.814-1.697c-8.043-6.646-16.027-13.35-24.074-19.99c-14.512-11.979-29.049-23.926-43.577-35.888
				c-1.347-0.351-2.769-1.177-4.025-0.978c-8.188,1.309-16.334,2.842-24.497,4.301l-11.603,1.99
				c2.795,1.943,5.023,3.496,7.254,5.047c0.313,0.176,0.626,0.351,0.938,0.522l-0.008,0.002c0.917,0.937,1.834,1.871,2.751,2.808
				c0.843,0.707,1.682,1.424,2.532,2.125c13.948,11.493,27.886,23,41.852,34.478c11.202,9.207,22.473,18.354,33.646,27.592
				c3.69,3.051,7.174,6.304,10.752,9.465c-0.948,3.563-1.897,7.125-2.846,10.688l-0.363,13.791
				c0.121-4.599,0.243-9.193,0.362-13.791c-0.955,4.295-1.909,8.59-2.865,12.888c-0.075,0.837-0.149,1.673-0.227,2.509
				c-0.146,0.309-0.293,0.613-0.439,0.921c-0.09,0.776-0.182,1.552-0.271,2.328c-0.188,1.929-0.378,3.858-0.565,5.786
				c0.004,0.221,0.009,0.447,0.015,0.67l-0.127,0.143l0.096,0.152c-0.309,10.742-1.493,21.564-0.688,32.205
				c0.921,12.156,3.675,24.145,8.106,35.639c0.823,2.139,1.709,4.245,2.625,6.342h33.062c-0.953-3.256-1.816-6.558-2.583-9.908
				c-0.489-2.135-0.091-4.457-0.188-6.688c-0.38-8.881-1.318-17.758-1.072-26.644c0.457-16.215,3.854-32.174,8.888-47.84
				c9.37-29.148,24.341-56.111,42.545-81.599c9.167-12.836,19.232-25.261,29.989-37.051c13.5-14.795,27.652-29.168,42.375-42.97
				C765.087,30.3,784.741,14.721,805.189,0.034z M414.852,121.48l-0.154,0.042c-4.146,0.699-8.291,1.395-12.437,2.1
				c-39.683,6.759-77.39,13.207-117.066,19.983c0,0-13.215,2.261-13.192,2.223l5.046,26.031c0,0,91.444-15.506,133.609-22.724
				c-0.869,2.235-1.739,4.47-2.609,6.706c-1.147,1.932-2.348,3.843-3.442,5.798c-25.828,46.128-51.655,92.256-77.454,138.396h34.592
				c34.854-62.539,69.573-124.826,104.626-187.722L414.852,121.48z M945.213,32.115c0.817-1.582,0.065-2.018-1.554-1.765
				c-6.739,1.054-13.477,2.119-20.209,3.181c-0.947,0.146-1.896,0.297-2.845,0.443c-2.066,0.355-4.136,0.711-6.373,1.095
				l1.187,6.919c0.183,1.061,0.364,2.121,0.545,3.181c1.95,10.71,3.951,21.41,5.841,32.13c3.023,17.151,5.998,34.313,8.943,51.479
				c3.385,19.736,6.715,39.482,10.069,59.227c0.083,1.662,0.165,3.318,0.245,4.979c-0.614-0.27-1.322-0.441-1.832-0.828
				c-4.512-3.381-8.93-6.855-13.473-10.197c-9.665-7.104-19.422-14.105-29.078-21.221c-13.742-10.125-27.399-20.35-41.152-30.463
				c-13.654-10.043-27.411-19.97-41.071-30.007c-17.228-12.655-34.402-25.367-51.603-38.054c-1-0.319-2.086-1.061-2.986-0.885
				c-4.239,0.833-8.43,1.918-12.637,2.915c-1.859,0.153-3.72,0.308-5.576,0.463c-1.737,0.204-3.474,0.41-5.371,0.634
				c0.597,2.638,1.115,4.929,1.632,7.218c0.237,1.15,0.474,2.299,0.709,3.45c0.611,4.305,1.116,8.63,1.851,12.914
				c9.6,56.193,19.229,112.381,28.861,168.571c0.11,0.637,0.345,1.25,0.521,1.875l1.525,8.896l30.332-5.205L775.117,108.05
				c0.243-0.247,0.484-0.494,0.728-0.738c0.401,0.506,0.706,1.119,1.22,1.506c10.592,7.939,21.164,15.896,31.816,23.764
				c20.782,15.349,41.646,30.604,62.41,45.969c24.696,18.279,49.436,36.509,73.888,55.048c5.021,3.808,9.675,5.358,16.243,3.571
				c5.941-1.616,12.182-2.217,18.5-3.301c-0.33-1.92-0.584-3.412-0.84-4.906C967.791,163.345,956.501,97.729,945.213,32.115z
				 M1526.087,0.034c-0.002,3.771-0.176,7.564-0.157,11.334l0.012-0.021c-0.099,0.499-0.197,0.996-0.299,1.494
				c0.027,0.391,0.054,0.787,0.08,1.178c-0.137,0.291-0.271,0.577-0.41,0.864l0.129,1.322c0.005,0.456,0.009,0.91,0.013,1.364
				l0.024,0.12c-0.228,1.704-0.457,3.408-0.685,5.11l0.045-0.054c-0.067,0.519-0.137,1.036-0.204,1.555
				c-0.146,0.181-0.205,0.38-0.177,0.6c-0.073,0.714-0.146,1.431-0.221,2.147l0.005,0.182c-0.079,0.608-0.16,1.213-0.238,1.818
				c-0.218,1.806-0.229,3.649-0.697,5.404c-0.949,3.532-2.151,7.015-3.248,10.521c-0.144,0.474-0.283,0.945-0.424,1.418
				l-0.554,2.025c-0.272,0.951-0.545,1.9-0.817,2.852c-1.283,3.956-2.567,7.91-3.851,11.863
				c-4.136,9.599-8.211,19.218-12.437,28.785c-1.91,4.33-4.114,8.558-6.188,12.83l0.019-0.013c-0.757,1.267-1.513,2.531-2.267,3.796
				c-0.164,0.229-0.329,0.459-0.491,0.687c-0.415,0.754-0.831,1.502-1.246,2.252c-0.148,0.228-0.301,0.453-0.453,0.68
				c-0.424,0.752-0.853,1.507-1.275,2.263c-0.337,0.481-0.676,0.965-1.012,1.449c-0.174,0.295-0.351,0.59-0.525,0.887
				c-0.585,0.944-1.169,1.89-1.753,2.836c-0.179,0.289-0.354,0.582-0.533,0.873c-6.264,8.896-12.442,17.844-18.823,26.678
				c-4.664,6.458-9.591,12.77-14.399,19.143c-3.658,4.143-7.349,8.266-10.974,12.432c-2.283,2.625-4.478,5.313-6.712,7.974
				c-2.042,1.886-4.145,3.722-6.114,5.665c-7.994,7.881-15.545,16.178-24.006,23.617c-14.927,13.125-30.231,25.904-45.714,38.484
				c-7.457,6.063-15.676,11.344-23.978,17.283c1.142-0.266,1.895-0.275,2.442-0.591c6.32-3.614,12.781-7.054,18.882-10.968
				c18.174-11.654,36.465-23.178,54.213-35.366c15.324-10.526,30.298-21.548,44.845-32.968
				c22.171-17.404,43.513-35.688,62.92-55.689c13.526-13.938,27.108-27.926,39.313-42.797c12.381-15.088,23.897-30.882,34.31-47.13
				c9.151-14.286,16.813-29.415,24.101-44.561c0.26-0.54,0.51-1.083,0.765-1.625L1526.087,0.034L1526.087,0.034z M1405.297,160.774
				c11.271-1.756,22.507-3.766,33.752-5.711c0.605-0.104,1.184-0.387,2.077-0.688c-15.926-12.329-31.565-24.389-47.146-36.509
				c-21.719-16.893-43.381-33.838-65.104-50.724c-1.404-1.091-1.719-1.865-0.635-3.515c6.815-10.382,13.47-20.85,20.184-31.287
				c6.934-10.771,13.871-21.537,20.807-32.307h-34.293c-9.514,14.833-19.023,29.665-28.536,44.498
				c-1.214,1.053-2.431,2.109-3.644,3.163c-0.409-0.501-0.73-1.091-1.24-1.489c-11.719-9.199-23.477-18.364-35.192-27.564
				c-7.892-6.197-15.771-12.405-23.656-18.607h-47.453c4.064,3.286,8.11,6.592,12.245,9.803
				c15.896,12.354,31.837,24.656,47.771,36.972c10.758,8.317,21.529,16.625,32.295,24.936l-0.314,1.798
				c0.104,0.523,0.104,1.106,0.206,1.63c-0.102-0.524-0.104-1.107-0.206-1.631c-0.406,0.543-0.854,1.069-1.221,1.633
				c-14.141,21.94-28.297,43.874-42.4,65.833c-6.799,10.586-13.5,21.223-20.244,31.84c-0.467,0.742-0.933,1.48-1.396,2.223
				c-1.126,2.143-2.25,4.282-3.375,6.424c-0.766,0.854-1.529,1.711-2.295,2.563c-2.261,3.326-4.521,6.652-7.11,10.466
				c12.693-2.178,24.616-4.274,36.563-6.226c2.106-0.342,3.359-1.207,4.404-2.836c14.285-22.338,28.607-44.655,42.938-66.97
				c6.088-9.482,12.21-18.945,18.396-28.543c5.144,4.099,10.035,8.053,14.991,11.937c24.571,19.246,49.14,38.497,73.806,57.641
				C1401.482,160.469,1403.699,161.021,1405.297,160.774z M1166.419,174.89c-10.387,1.728-20.779,3.426-31.163,5.187
				c-19.948,3.383-39.891,6.799-59.835,10.202c-0.165-0.403-0.413-0.793-0.487-1.213c-3.397-19.866-6.791-39.733-10.168-59.607
				c-0.119-0.7-0.071-1.43-0.116-2.405l91.465-15.695l-4.404-25.653c-0.691-0.144-1.428-0.514-2.078-0.399
				c-29.662,5.146-59.315,10.328-88.973,15.513c-0.4-0.686-1.04-1.328-1.167-2.062c-3.072-17.692-6.089-35.395-9.116-53.096
				c-0.381-2.227-0.764-4.455-1.228-7.14l95.056-16.311l-3.808-22.173h-22.563c-33.051,5.847-66.1,11.698-99.147,17.551
				c-1.741,0.27-3.552,0.362-5.197,0.897c-0.659,0.211-0.971,1.4-1.438,2.143c0.28,1.564,0.562,3.127,0.838,4.691
				c0.192,1.278,0.385,2.556,0.577,3.832c4.849,28.308,9.683,56.616,14.549,84.922c1.365,7.932,2.821,15.848,4.236,23.768
				c3.484,19.134,6.969,38.268,10.456,57.401c0.905,4.934,1.81,9.865,2.712,14.801c0.218,0.895,0.438,1.793,0.653,2.688
				c0.165,1.714,0.271,3.437,0.51,5.138c0.604,4.381,0.632,4.373,5.428,3.553l121.782-20.899l4.145-0.71l-4.48-26.125
				L1166.419,174.89z"/>
		</g>
	</g>
</g>
<g id="Layer_4">
	<g>
		<g>
			<path fill="#687DA1" d="M433.65,137.476c-4.159,0.695-8.319,1.385-12.478,2.086c-39.863,6.719-77.744,13.129-117.604,19.867
				c0,0-13.276,2.247-13.256,2.209l5.099,26.032c0,0,91.861-15.414,134.222-22.592c-0.872,2.231-1.747,4.469-2.616,6.7
				c-1.156,1.931-2.355,3.841-3.455,5.796c-22.933,40.807-45.865,81.611-68.777,122.428h34.743
				c31.976-57.16,63.868-114.17,96.044-171.686l-51.752,9.112L433.65,137.476z M839.281,6.994c3.442-2.36,6.912-4.686,10.399-6.992
				h-83.858c-2.516,2.071-5.031,4.143-7.526,6.238c-3.521,2.961-6.873,6.098-10.3,9.155c-0.34,0.291-0.684,0.583-1.028,0.872
				c-0.218,0.224-0.436,0.45-0.655,0.673c-2.607,2.306-5.326,4.514-7.796,6.931c-5.848,5.728-11.58,11.554-17.359,17.337
				l-0.007-0.048c-0.437,0.302-0.874,0.604-1.313,0.909c-0.403,0.463-0.807,0.928-1.208,1.394c-0.198,0.315-0.393,0.635-0.59,0.955
				l0.026-0.051c-0.238,0.008-0.45,0.085-0.635,0.225c-3.652,3.845-7.399,7.622-10.938,11.546
				c-15.604,17.297-31.802,34.173-44.791,53.273c-8.881,13.062-18.5,25.731-25.466,39.761c-0.175,0.466-0.349,0.935-0.526,1.405
				l0.052-0.023v0.004c-2.574,4.861-5.148,9.727-7.724,14.591l-6.183,10.972c-0.947-0.562-2-1.021-2.829-1.699
				c-8.089-6.649-16.118-13.36-24.209-20.01c-14.591-11.99-29.213-23.952-43.819-35.923c-1.354-0.354-2.781-1.182-4.046-0.981
				c-8.222,1.301-16.407,2.823-24.607,4.274l-11.657,1.98c2.811,1.945,5.052,3.5,7.296,5.053c0.316,0.176,0.628,0.348,0.945,0.523
				h-0.009c0.922,0.938,1.842,1.874,2.764,2.813c0.848,0.706,1.692,1.424,2.548,2.125c14.025,11.506,28.04,23.021,42.081,34.513
				c11.267,9.219,22.595,18.371,33.833,27.619c3.709,3.055,7.216,6.309,10.814,9.473c-0.95,3.563-1.9,7.123-2.849,10.683
				l-0.353,13.79c0.116-4.6,0.233-9.193,0.352-13.79c-0.957,4.295-1.91,8.586-2.866,12.881c-0.075,0.839-0.149,1.677-0.224,2.511
				c-0.149,0.308-0.293,0.612-0.443,0.922c-0.088,0.774-0.181,1.549-0.271,2.326c-0.19,1.928-0.377,3.854-0.566,5.785
				c0.007,0.225,0.013,0.444,0.02,0.67l-0.128,0.139l0.094,0.156c-0.298,10.737-1.477,21.562-0.66,32.198
				c0.674,8.746,2.317,17.401,4.842,25.854h36.41c-0.003-0.146-0.002-0.291-0.009-0.437c-0.388-8.882-1.344-17.758-1.102-26.644
				c0.442-16.211,3.838-32.163,8.883-47.818c9.385-29.143,24.401-56.083,42.667-81.546c9.2-12.824,19.302-25.238,30.097-37.016
				c13.55-14.781,27.755-29.137,42.535-42.922C789.57,42.932,813.932,24.375,839.281,6.994z M1429.011,177.67
				c11.325-1.744,22.612-3.74,33.909-5.676c0.608-0.104,1.188-0.386,2.085-0.688c-16.015-12.346-31.737-24.415-47.404-36.548
				c-21.836-16.91-43.62-33.875-65.46-50.779c-1.413-1.092-1.729-1.866-0.642-3.517c6.84-10.372,13.513-20.833,20.248-31.261
				c10.598-16.4,21.204-32.796,31.792-49.202h-34.502c-13.168,20.451-26.334,40.902-39.504,61.351
				c-1.217,1.053-2.435,2.107-3.653,3.16c-0.413-0.501-0.738-1.09-1.248-1.49c-11.787-9.21-23.603-18.383-35.389-27.596
				c-14.605-11.418-29.167-22.887-43.818-34.261c-0.901-0.698-2.415-0.756-3.642-1.11c-9.029,1.512-18.058,3.026-27.086,4.539
				c-2.797,0.692-5.591,1.382-9.349,2.313c1.887,1.425,3.075,2.323,4.263,3.221l0.001-0.002c0.262,0.187,0.522,0.375,0.779,0.561
				c0.593,0.526,1.188,1.052,1.782,1.579c0.449,0.37,0.9,0.736,1.351,1.106c0.667,0.524,1.336,1.048,2.005,1.573
				c4.851,3.879,9.642,7.82,14.563,11.627c15.983,12.364,32.015,24.682,48.035,37.013c10.815,8.325,21.647,16.639,32.474,24.959
				l-0.315,1.797c0.101,0.523,0.104,1.107,0.203,1.632c-0.101-0.524-0.104-1.108-0.205-1.63c-0.409,0.541-0.859,1.064-1.226,1.63
				c-14.187,21.924-28.388,43.839-42.538,65.78c-6.822,10.578-13.543,21.207-20.313,31.815c-0.466,0.742-0.934,1.479-1.402,2.222
				c-1.125,2.14-2.256,4.277-3.385,6.416c-0.768,0.854-1.538,1.709-2.304,2.563c-2.268,3.321-4.532,6.647-7.135,10.457
				c12.752-2.165,24.731-4.252,36.732-6.188c2.118-0.341,3.377-1.203,4.42-2.83c14.337-22.319,28.702-44.621,43.08-66.917
				c6.105-9.476,12.246-18.932,18.456-28.521c5.171,4.103,10.091,8.06,15.077,11.947c24.705,19.267,49.407,38.539,74.211,57.703
				C1425.178,177.362,1427.404,177.918,1429.011,177.67z M1548.632,0.002c0.448,3.084,0.847,6.174,1.206,9.263
				c0.73,6.3,0.199,12.753,0.232,19.139l0.014-0.016c-0.101,0.497-0.199,0.994-0.301,1.492c0.029,0.391,0.059,0.785,0.083,1.179
				c-0.135,0.286-0.273,0.573-0.409,0.861l0.132,1.321c0.003,0.457,0.006,0.91,0.011,1.366l0.027,0.119
				c-0.229,1.702-0.454,3.406-0.687,5.108l0.051-0.053c-0.071,0.518-0.14,1.033-0.205,1.552c-0.148,0.181-0.207,0.38-0.179,0.601
				c-0.074,0.715-0.146,1.429-0.22,2.145l0.004,0.185c-0.078,0.605-0.158,1.212-0.235,1.816c-0.217,1.804-0.227,3.648-0.695,5.4
				c-0.952,3.532-2.158,7.015-3.258,10.518c-0.143,0.471-0.279,0.944-0.422,1.419l-0.551,2.023c-0.274,0.949-0.547,1.899-0.822,2.85
				c-1.283,3.953-2.57,7.907-3.856,11.856c-4.145,9.596-8.23,19.209-12.463,28.771c-1.915,4.328-4.13,8.553-6.208,12.822
				l0.018-0.015c-0.758,1.267-1.516,2.529-2.273,3.795c-0.164,0.228-0.328,0.456-0.493,0.685c-0.415,0.752-0.829,1.502-1.245,2.25
				c-0.151,0.228-0.305,0.453-0.458,0.678c-0.425,0.754-0.853,1.506-1.279,2.26c-0.339,0.484-0.675,0.967-1.014,1.449
				c-0.178,0.295-0.352,0.59-0.527,0.886c-0.588,0.946-1.174,1.89-1.759,2.835c-0.177,0.291-0.354,0.582-0.53,0.872
				c-6.288,8.893-12.49,17.831-18.89,26.654c-4.684,6.453-9.623,12.757-14.451,19.127c-3.674,4.138-7.372,8.255-11.011,12.416
				c-2.294,2.621-4.493,5.308-6.737,7.967c-2.051,1.884-4.158,3.718-6.136,5.658c-8.026,7.873-15.604,16.16-24.099,23.589
				c-14.985,13.11-30.351,25.875-45.894,38.438c-7.487,6.053-15.741,11.323-24.077,17.256c1.149-0.267,1.907-0.275,2.457-0.588
				c6.35-3.609,12.832-7.043,18.961-10.949c18.251-11.633,36.616-23.137,54.437-35.309c15.387-10.509,30.419-21.513,45.026-32.918
				c22.258-17.384,43.686-35.641,63.166-55.619c13.577-13.924,27.211-27.896,39.457-42.754
				c12.429-15.074,23.985-30.854,34.429-47.088c9.181-14.277,16.864-29.396,24.169-44.531c2.971-6.159,5.578-12.428,7.849-18.784
				h-100.341v0.002H1548.632z M966.615,48.59c0.821-1.578,0.063-2.017-1.563-1.765c-6.768,1.046-13.535,2.104-20.304,3.161
				c-0.949,0.147-1.904,0.294-2.855,0.44c-2.077,0.354-4.152,0.706-6.403,1.087l1.2,6.922c0.184,1.06,0.365,2.12,0.553,3.179
				c1.967,10.709,3.987,21.411,5.896,32.131c3.052,17.151,6.061,34.313,9.036,51.479c3.422,19.735,6.789,39.483,10.174,59.226
				c0.085,1.659,0.17,3.319,0.253,4.979c-0.619-0.272-1.329-0.447-1.844-0.83c-4.53-3.386-8.976-6.867-13.542-10.209
				c-9.715-7.115-19.527-14.123-29.237-21.246c-13.819-10.136-27.552-20.371-41.38-30.498
				c-13.727-10.054-27.559-19.991-41.294-30.038c-17.322-12.671-34.591-25.396-51.883-38.101c-1.005-0.319-2.098-1.063-3.002-0.888
				c-4.259,0.828-8.466,1.91-12.695,2.904c-1.867,0.15-3.736,0.305-5.604,0.457c-1.743,0.203-3.488,0.406-5.393,0.627
				c0.601,2.641,1.125,4.93,1.647,7.223c0.237,1.15,0.476,2.297,0.715,3.447c0.617,4.306,1.13,8.629,1.87,12.914
				c9.703,56.192,19.43,112.382,29.164,168.569c0.11,0.638,0.347,1.252,0.527,1.875l1.54,8.896l30.47-5.174l-26.876-155.008
				c0.242-0.248,0.483-0.493,0.729-0.741c0.405,0.51,0.71,1.123,1.227,1.508c10.649,7.951,21.282,15.914,31.992,23.791
				c20.895,15.365,41.873,30.638,62.751,46.022c24.83,18.296,49.703,36.547,74.291,55.104c5.046,3.813,9.723,5.371,16.324,3.59
				c5.966-1.611,12.231-2.205,18.584-3.283c-0.332-1.92-0.59-3.414-0.849-4.907C989.429,179.821,978.023,114.206,966.615,48.59z
				 M1189.015,191.556c-10.438,1.717-20.879,3.403-31.31,5.155c-20.038,3.36-40.072,6.76-60.106,10.142
				c-0.166-0.403-0.418-0.791-0.489-1.211c-3.437-19.869-6.865-39.735-10.275-59.609c-0.118-0.699-0.075-1.429-0.121-2.406
				l91.886-15.604l-4.448-25.649c-0.699-0.146-1.436-0.516-2.091-0.404c-29.795,5.117-59.589,10.273-89.382,15.426
				c-0.4-0.688-1.043-1.329-1.174-2.063c-3.1-17.691-6.15-35.396-9.209-53.099c-0.384-2.226-0.771-4.453-1.238-7.137l95.488-16.218
				l-4.474-25.796l-5.945,1.01c-0.479,0.003-0.97-0.06-1.429,0.021c-38.092,6.667-76.181,13.346-114.272,20.022
				c-1.752,0.269-3.567,0.359-5.222,0.892c-0.662,0.211-0.973,1.399-1.443,2.143c0.281,1.563,0.566,3.125,0.846,4.689
				c0.193,1.279,0.389,2.557,0.584,3.833c4.899,28.307,9.785,56.617,14.703,84.92c1.376,7.933,2.848,15.849,4.275,23.771
				c3.521,19.134,7.043,38.267,10.563,57.397c0.914,4.935,1.828,9.868,2.741,14.8c0.218,0.897,0.439,1.795,0.655,2.692
				c0.17,1.713,0.277,3.437,0.519,5.14c0.614,4.375,0.638,4.371,5.455,3.555l122.343-20.776l4.163-0.71l-4.528-26.122
				L1189.015,191.556z"/>
		</g>
	</g>
</g>
<g id="Layer_5">
</g>
</svg>
